<?xml version="1.0" encoding="UTF-8" standalone="no"?>
<svg
   width="70.589905"
   height="226.46936"
   viewBox="0 0 52.942284 169.85068"
   version="1.1"
   id="svg6"
   xmlns="http://www.w3.org/2000/svg"
   xmlns:svg="http://www.w3.org/2000/svg">
  <defs
     id="defs23" />
  <g
     fill="none"
     stroke-width="2"
     stroke-linecap="round"
     stroke-linejoin="round"
     stroke="#000000"
     id="g4"
     transform="rotate(90,31.532374,29.282711)">
    <path
       d="m 427.9375,67.545391 c -1.65625,0 -3.15625,0.447916 -4.3125,1.229166 -1.15625,0.78125 -2,2 -2,3.375 0,0 0,1.78125 0,1.78125 0,1.375 0.84375,2.59375 2,3.375 1.15625,0.78125 2.65625,1.229167 4.3125,1.229167 0,0 21.1875,0 21.1875,0 1.65625,0 3.15625,-0.447917 4.3125,-1.229167 1.15625,-0.78125 2,-2 2,-3.375 0,0 0,-1.78125 0,-1.78125 0,-1.375 -0.84375,-2.59375 -2,-3.375 -1.15625,-0.78125 -2.65625,-1.229166 -4.3125,-1.229166 0,0 -21.1875,0 -21.1875,0"
       transform="matrix(0.375,0,0,0.375,-1.313,-1.314)"
       id="low-B" />
    <path
       d="m 427.90625,82.670391 c -1.65625,0 -3.15625,0.447916 -4.3125,1.229166 -1.15625,0.78125 -2,1.96875 -2,3.34375 0,0 0,1.8125 0,1.8125 0,1.375 0.84375,2.5625 2,3.34375 1.15625,0.78125 2.65625,1.229167 4.3125,1.229167 0,0 21.1875,0 21.1875,0 1.65625,0 3.15625,-0.447917 4.3125,-1.229167 1.15625,-0.78125 2,-1.96875 2,-3.34375 0,0 0,-1.8125 0,-1.8125 0,-1.375 -0.84375,-2.5625 -2,-3.34375 -1.15625,-0.78125 -2.65625,-1.229166 -4.3125,-1.229166 0,0 -21.1875,0 -21.1875,0"
       transform="matrix(0.375,0,0,0.375,-1.313,-1.314)"
       id="low-C" />
    <path
       d="m 437.71875,97.764141 c -2.64583,0.02083 -5.375,0.145833 -7.84375,0.625 -2.46875,0.479166 -4.71875,1.302083 -6.3125,2.812499 -1.60417,1.52083 -2.41667,3.78125 -2.03125,6.59375 0.84375,6.1875 5.23958,10.88542 10.9375,12.03125 5.69792,1.14583 12.61458,-1.29167 18.40625,-8.71875 2.40625,-3.08333 3.9375,-5.26042 5.28125,-6.5625 1.34375,-1.30208 2.375,-1.78125 4.28125,-1.78125 0.55208,0 1,-0.44792 1,-1 0,0 0,-2.937499 0,-2.937499 0,-0.552084 -0.44792,-1 -1,-1 0,0 -15.4375,0 -15.4375,0 -2.07292,0 -4.64583,-0.08333 -7.28125,-0.0625"
       transform="matrix(0.375,0,0,0.375,-1.313,-1.314)"
       id="low-D-flat" />
    <path
       d="m 411.59375,65.972474 c -0.51042,0.05208 -0.90625,0.479167 -0.90625,1 0,2.572917 -0.61458,3.770833 -2.25,5.34375 -1.63542,1.572917 -4.375,3.395833 -8.25,6.5625 -9.26042,7.5625 -12.22917,16.6875 -10.84375,24.249996 1.38542,7.5625 7.125,13.52084 14.8125,14.625 3.47917,0.5 6.21875,-0.59375 8.0625,-2.625 1.84375,-2.03125 2.84375,-4.88541 3.4375,-8.09375 1.1875,-6.41666 0.71875,-14.312496 0.71875,-19.781246 0,0 0,-20.28125 0,-20.28125 0,-0.552083 -0.44792,-1 -1,-1 0,0 -3.6875,0 -3.6875,0 -0.0312,0 -0.0625,0 -0.0937,0"
       transform="matrix(0.375,0,0,0.375,-1.313,-1.314)"
       id="D-sharp" />
    <path
       d="m 372.5,92.930807 c 0,-11.572916 -9.41667,-21 -21,-21 -11.58333,0 -21,9.427084 -21,21 0,11.583333 9.41667,21.000003 21,21.000003 11.58333,0 21,-9.41667 21,-21.000003"
       transform="matrix(0.375,0,0,0.375,-1.313,-1.314)"
       id="RH-3" />
    <path
       d="m 312.5,92.930807 c 0,-11.572916 -9.41667,-21 -21,-21 -11.58333,0 -21,9.427084 -21,21 0,11.583333 9.41667,21.000003 21,21.000003 11.58333,0 21,-9.41667 21,-21.000003"
       transform="matrix(0.375,0,0,0.375,-1.313,-1.314)"
       id="RH-2" />
    <path
       d="m 252.5,92.930807 c 0,-11.572916 -9.41667,-21 -21,-21 -11.58333,0 -21,9.427084 -21,21 0,11.583333 9.41667,21.000003 21,21.000003 11.58333,0 21,-9.41667 21,-21.000003"
       transform="matrix(0.375,0,0,0.375,-1.313,-1.314)"
       id="RH-1" />
    <path
       d="m 321.3125,113.18081 c -1.94792,0 -3.67708,1.04166 -4.875,2.59375 -1.19792,1.5625 -1.90625,3.64583 -1.90625,5.9375 0,0 0,7.53125 0,7.53125 0,2.29166 0.70833,4.38541 1.90625,5.9375 1.19792,1.5625 2.92708,2.59375 4.875,2.59375 1.94792,0 3.70833,-1.03125 4.90625,-2.59375 1.19792,-1.55209 1.875,-3.64584 1.875,-5.9375 0,0 0,-7.53125 0,-7.53125 0,-2.29167 -0.67708,-4.375 -1.875,-5.9375 -1.19792,-1.55209 -2.95833,-2.59375 -4.90625,-2.59375"
       transform="matrix(0.375,0,0,0.375,-1.313,-1.314)"
       id="trill-2" />
    <path
       d="m 261.6875,113.18081 c -1.94792,0 -3.67708,1.04166 -4.875,2.59375 -1.19792,1.5625 -1.90625,3.64583 -1.90625,5.9375 0,0 0,7.53125 0,7.53125 0,2.29166 0.70833,4.38541 1.90625,5.9375 1.19792,1.5625 2.92708,2.59375 4.875,2.59375 1.94792,0 3.67708,-1.03125 4.875,-2.59375 1.19792,-1.55209 1.90625,-3.64584 1.90625,-5.9375 0,0 0,-7.53125 0,-7.53125 0,-2.29167 -0.70833,-4.375 -1.90625,-5.9375 -1.19792,-1.55209 -2.92708,-2.59375 -4.875,-2.59375"
       transform="matrix(0.375,0,0,0.375,-1.313,-1.314)"
       id="trill-1" />
    <path
       d="m 216.38542,123.10789 c -2.11459,0 -3.95834,1.27083 -5.21875,3.15625 -1.25,1.875 -2,4.375 -2,7.125 0,0.71875 0.1875,2.92708 0.25,3.625 -0.0104,0.41667 -0.38542,1.34375 -1.25,2.3125 -0.84375,0.94792 -2.11459,1.95833 -3.6875,2.84375 -0.0208,0.0104 -0.0417,0.0104 -0.0625,0.0312 -0.0312,0.0104 -0.0625,0.0312 -0.0937,0.0625 -0.0208,0.0104 -0.0625,0 -0.0937,0.0312 0,0 0.0104,0.0208 0,0.0312 -0.0104,0.0104 -0.0312,0 -0.0625,0.0312 0,0.0104 0,0.0208 0,0.0312 -0.0104,0.0104 -0.0312,0.0312 -0.0625,0.0625 0,0 -0.0208,-0.0104 -0.0312,0 -0.0208,0.0208 -0.0937,0.0625 -0.0937,0.0625 0,0 -0.0937,0.1875 -0.0937,0.1875 0,0 -0.0937,0.21875 -0.0937,0.21875 0,0 0,0.28125 0,0.28125 0,0 0.0937,0.40625 0.0937,0.40625 0,0 0.25,0.3125 0.25,0.3125 0,0 0.28125,0.15625 0.28125,0.15625 0,0 0.1875,0.0625 0.1875,0.0625 0,0 0.21875,0 0.21875,0 0,0 0.15625,-0.0312 0.1875,-0.0312 0.0417,-0.0104 0.0521,0 0.0625,0 6.375,1.45833 11.14583,1.34375 14.46875,-0.5625 3.39583,-1.95833 4.96875,-5.69792 4.96875,-10.59375 0,-5.625 -3.96875,-9.84375 -8.125,-9.84375"
       transform="matrix(0.375,0,0,0.375,-1.313,-1.314)"
       id="spatula-B-flat" />
    <path
       d="m 190.51042,112.95164 c 0,0 0,-39.999999 0,-39.999999"
       transform="matrix(0.375,0,0,0.375,-1.313,-1.314)"
       id="divider" />
    <path
       d="m 152.76042,25.545391 c -2.8125,0.166666 -5.47917,0.770833 -7.78125,1.75 -4.60417,1.9375 -7.89584,5.53125 -7.71875,10.09375 0.17708,4.34375 2.76041,8.854166 8.75,12.0625 5.83333,3.114583 14.95833,5.020833 28.5,4.8125 0,0 0,9.6875 0,9.6875 0,0.552083 0.44791,1 1,1 0,0 5.3125,0 5.3125,0 0.52083,0 0.95833,-0.395834 1,-0.90625 1.33333,-11.625 -0.73959,-20.28125 -4.6875,-26.40625 -3.9375,-6.135417 -9.72917,-9.6875 -15.625,-11.21875 -2.94792,-0.770834 -5.92709,-1.041667 -8.75,-0.875"
       transform="matrix(0.375,0,0,0.375,-1.313,-1.314)"
       id="G-sharp" />
    <path
       d="m 172.5,92.930807 c 0,-11.572916 -9.41667,-21 -21,-21 -11.58333,0 -21,9.427084 -21,21 0,11.583333 9.41667,21.000003 21,21.000003 11.58333,0 21,-9.41667 21,-21.000003"
       id="LH-3"
       transform="matrix(0.375,0,0,0.375,-1.313,-1.314)" />
    <path
       d="m 112.5,92.930807 c 0,-11.572916 -9.41667,-21 -21,-21 -11.583333,0 -21,9.427084 -21,21 0,11.583333 9.416667,21.000003 21,21.000003 11.58333,0 21,-9.41667 21,-21.000003"
       transform="matrix(0.375,0,0,0.375,-1.313,-1.314)"
       id="LH-2" />
    <path
       d="m 52.5,92.930807 c 0,-11.572916 -9.416667,-21 -21,-21 -11.583333,0 -21,9.427084 -21,21 0,11.583333 9.416667,21.000003 21,21.000003 11.583333,0 21,-9.41667 21,-21.000003"
       transform="matrix(0.375,0,0,0.375,-1.313,-1.314)"
       id="LH-1" />
    <path
       d="m 36.21875,122.82664 c -6.302083,0.11458 -13.114583,2.125 -17.010417,7.39583 -3.802083,5.13542 -4.65625,11.84375 -4.25,18.0625 0.635417,6.90625 5.041667,13.86459 11.90625,15.92709 3.802084,1.23958 8.09375,-0.10417 10.770834,-3.01042 4.875,-5.09375 6.260416,-12.57292 5.572916,-19.39583 -0.01042,-2.07292 -0.822916,-4.3125 0.416667,-6.21875 2.260417,-4.08334 6.302083,-6.79167 10.21875,-9.10417 1.0625,-2.23958 -2.208333,-1.5625 -3.447917,-2.14583 -4.65625,-0.96875 -9.40625,-1.64584 -14.177083,-1.51042"
       transform="matrix(0.375,0,0,0.375,-1.313,-1.314)"
       id="thumb-B-flat" />
    <path
       d="m 75.15625,130.26414 c -6.885417,-0.0312 -12.8125,0.625 -17.0625,2.8125 -4.25,2.17708 -6.697917,6.125 -6.1875,11.90625 1.645833,4.875 4.78125,8.45833 9.03125,11.21875 3.770833,2.04167 8.135417,2.5625 12.625,2.03125 8.927083,-1.07292 18.4375,-6.27083 25.75,-12.46875 0.04167,-0.0417 0.08333,-0.0625 0.125,-0.0937 6.42708,-4.09375 6.32292,-6.27083 22.53125,-10.375 0.48958,-0.125 0.80208,-0.58333 0.75,-1.08333 -0.0521,-0.5 -0.46875,-0.875 -0.96875,-0.88542 -15.125,-0.14583 -32.822917,-3.01042 -46.59375,-3.0625"
       transform="matrix(0.375,0,0,0.375,-1.313,-1.314)"
       id="thumb-B" />
  </g>
</svg>
