<?xml version="1.0" encoding="UTF-8" standalone="no"?>
<svg
   width="61.129"
   height="17.750"
   viewBox="-19.808 21.519 61.129 17.750"
   version="1.1"
   id="svg6"
   xmlns="http://www.w3.org/2000/svg"
   xmlns:svg="http://www.w3.org/2000/svg">
  <defs
     id="defs9" />
  <g
     fill="none"
     stroke-width="2"
     stroke-linecap="round"
     stroke-linejoin="round"
     stroke="#000"
     id="g4">
    <path
       style="stroke-width:0.75"
       d="m -18.807959,30.393994 c 0,4.34375 3.531248,7.875 7.875,7.875 4.3398418,0 7.8750005,-3.53125 7.8750005,-7.875 0,-4.34375 -3.5351587,-7.875 -7.8750005,-7.875 -4.343752,0 -7.875,3.53125 -7.875,7.875"
       id="valve-1" />
    <path
       style="stroke-width:0.75"
       d="m 2.8795402,30.393994 c 0,4.34375 3.5351551,7.875 7.8749998,7.875 4.34375,0 7.875,-3.53125 7.875,-7.875 0,-4.34375 -3.53125,-7.875 -7.875,-7.875 -4.3398447,0 -7.8749998,3.53125 -7.8749998,7.875"
       id="valve-2" />
    <path
       style="stroke-width:0.75"
       d="m 24.570946,30.393994 c 0,4.34375 3.53125,7.875 7.875,7.875 4.34375,0 7.875,-3.53125 7.875,-7.875 0,-4.34375 -3.53125,-7.875 -7.875,-7.875 -4.34375,0 -7.875,3.53125 -7.875,7.875"
       id="valve-3" />
  </g>
</svg>
